<svg width="20" height="20" viewBox="0 0 20 20" fill="none" xmlns="http://www.w3.org/2000/svg">
<path d="M13.7118 5.6407H8.74477C8.30699 5.6407 7.95215 5.99551 7.95215 6.43332C7.95215 6.87109 8.30695 7.22594 8.74477 7.22594H13.7118C14.1498 7.22594 14.5044 6.87113 14.5044 6.43332C14.5043 5.99551 14.1495 5.6407 13.7118 5.6407Z" fill="#16B238"/>
<path d="M15.614 9.4716H8.74477C8.30699 9.4716 7.95215 9.82641 7.95215 10.2642C7.95215 10.702 8.30695 11.0568 8.74477 11.0568H15.614C16.0518 11.0568 16.4066 10.702 16.4066 10.2642C16.4066 9.82641 16.0518 9.4716 15.614 9.4716Z" fill="#16B238"/>
<path d="M19.2074 0.673706H5.17832C4.74055 0.673706 4.3857 1.02851 4.3857 1.46632V8.94319H2.98547C1.33922 8.94319 0 10.2827 0 11.9287V16.3408C0 17.9871 1.33922 19.3263 2.98547 19.3263C3.1202 19.3263 3.25285 19.3173 3.38258 19.2999H16.4597C18.4116 19.2999 20 17.7117 20 15.7596V1.46632C20 1.02851 19.6452 0.673706 19.2074 0.673706ZM4.38574 16.3408C4.38574 17.0201 3.89934 17.5881 3.25656 17.7146H2.98551V17.741C2.21324 17.741 1.58523 17.1128 1.58523 16.3408V11.9287C1.58523 11.1567 2.21352 10.5284 2.98551 10.5284H4.38578V16.3408H4.38574ZM18.4148 15.7596C18.4148 16.8193 17.5197 17.7146 16.4597 17.7146H5.63566C5.84992 17.3033 5.97094 16.8359 5.97094 16.3408V2.2589H18.4148V15.7596Z" fill="#16B238"/>
<path d="M13.7118 13.065H8.74477C8.30699 13.065 7.95215 13.4198 7.95215 13.8576C7.95215 14.2954 8.30695 14.6502 8.74477 14.6502H13.7118C14.1498 14.6502 14.5044 14.2954 14.5044 13.8576C14.5043 13.4198 14.1495 13.065 13.7118 13.065Z" fill="#16B238"/>
</svg>
