<svg width="18" height="20" viewBox="0 0 18 20" fill="none" xmlns="http://www.w3.org/2000/svg">
<path d="M16.5625 6.94518L14.602 6.23163C15.3109 5.64592 15.6135 4.7169 15.3965 3.83409C14.9701 2.0996 12.8553 1.44116 11.5192 2.62229L10.1656 3.81885L9.89782 2.02432C9.63306 0.257564 7.58763 -0.592436 6.14868 0.460298C5.42919 0.986665 5.04645 1.89405 5.21618 2.81538L3.36782 2.14264C2.45845 1.81159 1.44911 2.28221 1.11806 3.1917L0.317665 5.39081C0.207157 5.69444 0.36372 6.03022 0.667391 6.14069C0.790556 6.18549 9.68075 9.42128 9.8113 9.46877C9.4413 9.46877 1.33852 9.46877 0.98204 9.46877C0.658915 9.46877 0.396962 9.73073 0.396962 10.0539V18.2448C0.396962 19.2126 1.18434 20 2.15216 20H6.8327H9.17298H13.8535C14.8213 20 15.6087 19.2126 15.6087 18.2448V11.5789L16.0613 11.7437C16.3636 11.8537 16.7002 11.6989 16.8112 11.394L17.6116 9.19487C17.9426 8.28538 17.472 7.2762 16.5625 6.94518ZM6.24759 18.8299H2.15212C1.8295 18.8299 1.56704 18.5674 1.56704 18.2448V10.6389H6.24759V18.8299ZM8.58786 18.8299H7.41774V10.6389H8.58786V18.8299ZM12.2941 3.49901C12.9729 2.89897 14.0443 3.23557 14.2602 4.1135C14.4904 5.04956 13.5856 5.8612 12.6801 5.53213C11.9099 5.25178 11.5489 5.12042 10.7776 4.83967L12.2941 3.49901ZM6.83954 1.40475C7.57079 0.86983 8.60661 1.30389 8.74063 2.19784L9.04063 4.20741C8.8247 4.12881 7.35071 3.59229 7.13833 3.51502C6.2327 3.18522 6.06165 1.97374 6.83954 1.40475ZM7.11517 7.24225L1.61735 5.2412L2.21766 3.5919C2.32802 3.28874 2.66446 3.13194 2.96759 3.24221C3.58282 3.46612 7.72583 4.97405 7.91556 5.04311L7.11517 7.24225ZM9.31431 8.04272L8.21474 7.64249L9.01516 5.44338L10.1147 5.84362L9.31431 8.04272ZM14.4385 18.2448C14.4385 18.5674 14.1761 18.8299 13.8534 18.8299H9.75802V10.6389H13.0262L14.4386 11.153V18.2448H14.4385ZM16.512 8.79459L15.9117 10.4439L10.4139 8.44288L11.2143 6.24377L16.1623 8.04467C16.4655 8.15502 16.6223 8.49147 16.512 8.79459Z" fill="#EE3524"/>
</svg>
